<mxfile host="65bd71144e">
    <diagram id="2Y5bBDDiutdGjcG9jiM9" name="Page-1">
        <mxGraphModel dx="499" dy="610" grid="1" gridSize="10" guides="1" tooltips="1" connect="1" arrows="1" fold="1" page="1" pageScale="1" pageWidth="850" pageHeight="1100" math="0" shadow="0">
            <root>
                <mxCell id="0"/>
                <mxCell id="1" parent="0"/>
                <mxCell id="2" value="browse" style="shape=umlLifeline;perimeter=lifelinePerimeter;container=1;collapsible=0;recursiveResize=0;rounded=0;shadow=0;strokeWidth=2;fillColor=#d5e8d4;strokeColor=#82b366;" parent="1" vertex="1">
                    <mxGeometry x="27" y="20" width="100" height="975" as="geometry"/>
                </mxCell>
                <mxCell id="3" value="" style="points=[];perimeter=orthogonalPerimeter;rounded=0;shadow=0;strokeWidth=1;fillColor=#d5e8d4;strokeColor=#82b366;" parent="2" vertex="1">
                    <mxGeometry x="45" y="70" width="10" height="40" as="geometry"/>
                </mxCell>
                <mxCell id="61" value="" style="points=[];perimeter=orthogonalPerimeter;rounded=0;shadow=0;strokeWidth=1;fillColor=#d5e8d4;strokeColor=#82b366;" parent="2" vertex="1">
                    <mxGeometry x="45" y="145" width="10" height="40" as="geometry"/>
                </mxCell>
                <mxCell id="67" value="" style="points=[];perimeter=orthogonalPerimeter;rounded=0;shadow=0;strokeWidth=1;fillColor=#d5e8d4;strokeColor=#82b366;" parent="2" vertex="1">
                    <mxGeometry x="45" y="205" width="10" height="40" as="geometry"/>
                </mxCell>
                <mxCell id="74" value="" style="points=[];perimeter=orthogonalPerimeter;rounded=0;shadow=0;strokeWidth=1;fillColor=#d5e8d4;strokeColor=#82b366;" parent="2" vertex="1">
                    <mxGeometry x="45" y="285" width="10" height="40" as="geometry"/>
                </mxCell>
                <mxCell id="77" value="" style="points=[];perimeter=orthogonalPerimeter;rounded=0;shadow=0;strokeWidth=1;fillColor=#d5e8d4;strokeColor=#82b366;" parent="2" vertex="1">
                    <mxGeometry x="45" y="345" width="10" height="65" as="geometry"/>
                </mxCell>
                <mxCell id="78" style="edgeStyle=orthogonalEdgeStyle;rounded=0;orthogonalLoop=1;jettySize=auto;html=1;entryX=1.1;entryY=0.525;entryDx=0;entryDy=0;entryPerimeter=0;fontSize=11;" parent="2" source="77" target="77" edge="1">
                    <mxGeometry relative="1" as="geometry"/>
                </mxCell>
                <mxCell id="79" value="7. 用户登录" style="edgeLabel;html=1;align=center;verticalAlign=middle;resizable=0;points=[];fontSize=11;" parent="78" vertex="1" connectable="0">
                    <mxGeometry x="-0.0095" relative="1" as="geometry">
                        <mxPoint x="19" y="8" as="offset"/>
                    </mxGeometry>
                </mxCell>
                <mxCell id="86" value="" style="points=[];perimeter=orthogonalPerimeter;rounded=0;shadow=0;strokeWidth=1;fillColor=#d5e8d4;strokeColor=#82b366;" parent="2" vertex="1">
                    <mxGeometry x="45" y="455" width="10" height="40" as="geometry"/>
                </mxCell>
                <mxCell id="89" value="" style="points=[];perimeter=orthogonalPerimeter;rounded=0;shadow=0;strokeWidth=1;fillColor=#d5e8d4;strokeColor=#82b366;" parent="2" vertex="1">
                    <mxGeometry x="45" y="525" width="10" height="40" as="geometry"/>
                </mxCell>
                <mxCell id="100" value="" style="points=[];perimeter=orthogonalPerimeter;rounded=0;shadow=0;strokeWidth=1;fillColor=#d5e8d4;strokeColor=#82b366;" parent="2" vertex="1">
                    <mxGeometry x="45" y="585" width="10" height="40" as="geometry"/>
                </mxCell>
                <mxCell id="113" value="" style="points=[];perimeter=orthogonalPerimeter;rounded=0;shadow=0;strokeWidth=1;fillColor=#d5e8d4;strokeColor=#82b366;" parent="2" vertex="1">
                    <mxGeometry x="45" y="645" width="10" height="40" as="geometry"/>
                </mxCell>
                <mxCell id="52" value="" style="points=[];perimeter=orthogonalPerimeter;rounded=0;shadow=0;strokeWidth=1;fillColor=#d5e8d4;strokeColor=#82b366;" parent="2" vertex="1">
                    <mxGeometry x="45" y="695" width="10" height="40" as="geometry"/>
                </mxCell>
                <mxCell id="122" value="" style="points=[];perimeter=orthogonalPerimeter;rounded=0;shadow=0;strokeWidth=1;fillColor=#d5e8d4;strokeColor=#82b366;" parent="2" vertex="1">
                    <mxGeometry x="46" y="755" width="9" height="40" as="geometry"/>
                </mxCell>
                <mxCell id="126" value="" style="points=[];perimeter=orthogonalPerimeter;rounded=0;shadow=0;strokeWidth=1;fillColor=#d5e8d4;strokeColor=#82b366;" parent="2" vertex="1">
                    <mxGeometry x="46" y="805" width="9" height="40" as="geometry"/>
                </mxCell>
                <mxCell id="5" value="pan.com" style="shape=umlLifeline;perimeter=lifelinePerimeter;container=1;collapsible=0;recursiveResize=0;rounded=0;shadow=0;strokeWidth=2;fillColor=#d5e8d4;strokeColor=#82b366;" parent="1" vertex="1">
                    <mxGeometry x="264" y="20" width="100" height="965" as="geometry"/>
                </mxCell>
                <mxCell id="55" value="" style="points=[];perimeter=orthogonalPerimeter;rounded=0;shadow=0;strokeWidth=1;fillColor=#f8cecc;strokeColor=#b85450;" parent="5" vertex="1">
                    <mxGeometry x="45" y="115" width="10" height="40" as="geometry"/>
                </mxCell>
                <mxCell id="90" value="" style="points=[];perimeter=orthogonalPerimeter;rounded=0;shadow=0;strokeWidth=1;fillColor=#f8cecc;strokeColor=#b85450;" parent="5" vertex="1">
                    <mxGeometry x="45" y="535" width="10" height="35" as="geometry"/>
                </mxCell>
                <mxCell id="98" style="edgeStyle=orthogonalEdgeStyle;rounded=0;orthogonalLoop=1;jettySize=auto;html=1;fontSize=11;" parent="5" source="90" target="90" edge="1">
                    <mxGeometry relative="1" as="geometry"/>
                </mxCell>
                <mxCell id="99" value="step-2" style="edgeLabel;html=1;align=center;verticalAlign=middle;resizable=0;points=[];fontSize=11;" parent="98" vertex="1" connectable="0">
                    <mxGeometry x="-0.6333" y="2" relative="1" as="geometry">
                        <mxPoint x="11" y="4.5" as="offset"/>
                    </mxGeometry>
                </mxCell>
                <mxCell id="11" value="1. 访问受保护资源" style="verticalAlign=bottom;endArrow=block;shadow=0;strokeWidth=1;fontStyle=0" parent="1" target="5" edge="1">
                    <mxGeometry relative="1" as="geometry">
                        <mxPoint x="82" y="101" as="sourcePoint"/>
                        <mxPoint x="252" y="101" as="targetPoint"/>
                    </mxGeometry>
                </mxCell>
                <mxCell id="53" value="&lt;span style=&quot;background-color: rgb(248 , 249 , 250)&quot;&gt;&lt;b&gt;&lt;font style=&quot;font-size: 14px&quot; color=&quot;#ff59f4&quot;&gt;http://pan.com/xxx&lt;/font&gt;&lt;/b&gt;&lt;/span&gt;" style="edgeLabel;html=1;align=center;verticalAlign=middle;resizable=0;points=[];fontSize=11;" parent="11" vertex="1" connectable="0">
                    <mxGeometry x="-0.7882" y="-5" relative="1" as="geometry">
                        <mxPoint x="95" y="4" as="offset"/>
                    </mxGeometry>
                </mxCell>
                <mxCell id="14" value="search.baidu.com" style="shape=umlLifeline;perimeter=lifelinePerimeter;container=1;collapsible=0;recursiveResize=0;rounded=0;shadow=0;strokeWidth=2;fillColor=#f5f5f5;strokeColor=#666666;fontColor=#333333;" parent="1" vertex="1">
                    <mxGeometry x="424" y="20" width="100" height="965" as="geometry"/>
                </mxCell>
                <mxCell id="101" value="" style="points=[];perimeter=orthogonalPerimeter;rounded=0;shadow=0;strokeWidth=1;fillColor=#f5f5f5;strokeColor=#666666;fontColor=#333333;" parent="14" vertex="1">
                    <mxGeometry x="45" y="585" width="10" height="40" as="geometry"/>
                </mxCell>
                <mxCell id="111" value="" style="points=[];perimeter=orthogonalPerimeter;rounded=0;shadow=0;strokeWidth=1;fillColor=#f5f5f5;strokeColor=#666666;fontColor=#333333;" parent="14" vertex="1">
                    <mxGeometry x="45" y="645" width="10" height="40" as="geometry"/>
                </mxCell>
                <mxCell id="127" value="" style="points=[];perimeter=orthogonalPerimeter;rounded=0;shadow=0;strokeWidth=1;fillColor=#f5f5f5;strokeColor=#666666;fontColor=#333333;" parent="14" vertex="1">
                    <mxGeometry x="45" y="820" width="10" height="15" as="geometry"/>
                </mxCell>
                <mxCell id="133" value="" style="points=[];perimeter=orthogonalPerimeter;rounded=0;shadow=0;strokeWidth=1;fillColor=#f5f5f5;strokeColor=#666666;fontColor=#333333;" parent="14" vertex="1">
                    <mxGeometry x="45" y="895" width="10" height="40" as="geometry"/>
                </mxCell>
                <mxCell id="22" value="ssoserver.com" style="shape=umlLifeline;perimeter=lifelinePerimeter;container=1;collapsible=0;recursiveResize=0;rounded=0;shadow=0;strokeWidth=2;fillColor=#d5e8d4;strokeColor=#82b366;perimeterSpacing=0;fontSize=11;" parent="1" vertex="1">
                    <mxGeometry x="584" y="20" width="100" height="975" as="geometry"/>
                </mxCell>
                <mxCell id="69" value="" style="points=[];perimeter=orthogonalPerimeter;rounded=0;shadow=0;strokeWidth=1;fillColor=#ffe6cc;strokeColor=#d79b00;" parent="22" vertex="1">
                    <mxGeometry x="45" y="224" width="10" height="40" as="geometry"/>
                </mxCell>
                <mxCell id="71" value="" style="points=[];perimeter=orthogonalPerimeter;rounded=0;shadow=0;strokeWidth=1;fillColor=#ffe6cc;strokeColor=#d79b00;" parent="22" vertex="1">
                    <mxGeometry x="45" y="285" width="10" height="40" as="geometry"/>
                </mxCell>
                <mxCell id="72" style="edgeStyle=orthogonalEdgeStyle;rounded=0;orthogonalLoop=1;jettySize=auto;html=1;fontSize=11;" parent="22" source="71" target="71" edge="1">
                    <mxGeometry relative="1" as="geometry"/>
                </mxCell>
                <mxCell id="73" value="&lt;font style=&quot;font-size: 13px&quot;&gt;5. 返回登录页&lt;/font&gt;" style="edgeLabel;html=1;align=center;verticalAlign=middle;resizable=0;points=[];fontSize=11;" parent="72" vertex="1" connectable="0">
                    <mxGeometry x="-0.6667" y="-1" relative="1" as="geometry">
                        <mxPoint x="42" as="offset"/>
                    </mxGeometry>
                </mxCell>
                <mxCell id="85" value="" style="points=[];perimeter=orthogonalPerimeter;rounded=0;shadow=0;strokeWidth=1;fillColor=#ffe6cc;strokeColor=#d79b00;" parent="22" vertex="1">
                    <mxGeometry x="45" y="455" width="10" height="40" as="geometry"/>
                </mxCell>
                <mxCell id="94" value="" style="points=[];perimeter=orthogonalPerimeter;rounded=0;shadow=0;strokeWidth=1;fillColor=#ffe6cc;strokeColor=#d79b00;" parent="22" vertex="1">
                    <mxGeometry x="45" y="115" width="10" height="40" as="geometry"/>
                </mxCell>
                <mxCell id="119" value="" style="points=[];perimeter=orthogonalPerimeter;rounded=0;shadow=0;strokeWidth=1;fillColor=#d5e8d4;strokeColor=#82b366;" parent="22" vertex="1">
                    <mxGeometry x="45" y="745" width="10" height="40" as="geometry"/>
                </mxCell>
                <mxCell id="120" style="edgeStyle=orthogonalEdgeStyle;rounded=0;orthogonalLoop=1;jettySize=auto;html=1;fontSize=11;" parent="22" source="119" target="119" edge="1">
                    <mxGeometry relative="1" as="geometry"/>
                </mxCell>
                <mxCell id="121" value="16. 根据 cookie 判断出login 返回 code" style="edgeLabel;html=1;align=center;verticalAlign=middle;resizable=0;points=[];fontSize=11;" parent="120" vertex="1" connectable="0">
                    <mxGeometry x="-0.5333" relative="1" as="geometry">
                        <mxPoint x="88" as="offset"/>
                    </mxGeometry>
                </mxCell>
                <mxCell id="54" value="" style="points=[];perimeter=orthogonalPerimeter;rounded=0;shadow=0;strokeWidth=1;fillColor=#f8cecc;strokeColor=#b85450;" parent="1" vertex="1">
                    <mxGeometry x="309" y="100" width="10" height="20" as="geometry"/>
                </mxCell>
                <mxCell id="62" style="edgeStyle=orthogonalEdgeStyle;rounded=0;orthogonalLoop=1;jettySize=auto;html=1;fontSize=11;" parent="1" source="55" target="61" edge="1">
                    <mxGeometry relative="1" as="geometry">
                        <Array as="points">
                            <mxPoint x="121" y="175"/>
                            <mxPoint x="121" y="175"/>
                        </Array>
                    </mxGeometry>
                </mxCell>
                <mxCell id="63" value="&lt;font style=&quot;font-size: 11px&quot;&gt;3. 是，返回用户信息； &lt;br&gt;若没有登录, 则命令浏览器重定向去授权&lt;/font&gt;" style="edgeLabel;html=1;align=center;verticalAlign=middle;resizable=0;points=[];fontSize=11;" parent="62" vertex="1" connectable="0">
                    <mxGeometry x="0.6941" y="-1" relative="1" as="geometry">
                        <mxPoint x="84" y="1" as="offset"/>
                    </mxGeometry>
                </mxCell>
                <mxCell id="68" style="edgeStyle=orthogonalEdgeStyle;rounded=0;orthogonalLoop=1;jettySize=auto;html=1;entryX=0.2;entryY=0.05;entryDx=0;entryDy=0;entryPerimeter=0;fontSize=11;" parent="1" source="67" target="69" edge="1">
                    <mxGeometry relative="1" as="geometry"/>
                </mxCell>
                <mxCell id="70" value="4. 重定向:&amp;nbsp;&lt;b style=&quot;font-size: 13px&quot;&gt;&lt;font color=&quot;#ff33ff&quot;&gt;&lt;span style=&quot;background-color: rgb(248 , 249 , 250)&quot;&gt;http://ssoserver.com/login.html?redi_uri=&lt;/span&gt;http://pan.com/xxx&lt;/font&gt;&lt;/b&gt;" style="edgeLabel;html=1;align=center;verticalAlign=middle;resizable=0;points=[];fontSize=11;" parent="68" vertex="1" connectable="0">
                    <mxGeometry x="-0.6582" y="3" relative="1" as="geometry">
                        <mxPoint x="155" y="3" as="offset"/>
                    </mxGeometry>
                </mxCell>
                <mxCell id="75" style="edgeStyle=orthogonalEdgeStyle;rounded=0;orthogonalLoop=1;jettySize=auto;html=1;fontSize=11;" parent="1" source="71" target="74" edge="1">
                    <mxGeometry relative="1" as="geometry"/>
                </mxCell>
                <mxCell id="76" value="&lt;span style=&quot;font-weight: normal&quot;&gt;&lt;font style=&quot;font-size: 12px&quot;&gt;6. 浏览器展示登录页&lt;/font&gt;&lt;/span&gt;" style="edgeLabel;html=1;align=center;verticalAlign=middle;resizable=0;points=[];fontSize=11;fontStyle=1" parent="75" vertex="1" connectable="0">
                    <mxGeometry x="0.6197" y="3" relative="1" as="geometry">
                        <mxPoint x="5" y="-3" as="offset"/>
                    </mxGeometry>
                </mxCell>
                <mxCell id="80" value="" style="points=[];perimeter=orthogonalPerimeter;rounded=0;shadow=0;strokeWidth=1;fillColor=#ffe6cc;strokeColor=#d79b00;" parent="1" vertex="1">
                    <mxGeometry x="629" y="402.5" width="10" height="52.5" as="geometry"/>
                </mxCell>
                <mxCell id="81" style="edgeStyle=orthogonalEdgeStyle;rounded=0;orthogonalLoop=1;jettySize=auto;html=1;fontSize=11;" parent="1" source="77" target="80" edge="1">
                    <mxGeometry relative="1" as="geometry">
                        <Array as="points">
                            <mxPoint x="221" y="423"/>
                            <mxPoint x="221" y="423"/>
                        </Array>
                    </mxGeometry>
                </mxCell>
                <mxCell id="82" value="&lt;font style=&quot;font-size: 12px&quot;&gt;8. 提交登录请求:&lt;br&gt;&lt;font color=&quot;#ff59f4&quot; style=&quot;font-size: 12px&quot;&gt;&lt;b&gt;http://ssoserver.com/login?uname, pwd, red_uri&lt;/b&gt;&lt;/font&gt;&lt;/font&gt;" style="edgeLabel;html=1;align=center;verticalAlign=middle;resizable=0;points=[];fontSize=11;" parent="81" vertex="1" connectable="0">
                    <mxGeometry x="-0.9086" relative="1" as="geometry">
                        <mxPoint x="174" y="-0.5" as="offset"/>
                    </mxGeometry>
                </mxCell>
                <mxCell id="83" style="edgeStyle=orthogonalEdgeStyle;rounded=0;orthogonalLoop=1;jettySize=auto;html=1;fontSize=11;" parent="1" source="80" target="80" edge="1">
                    <mxGeometry relative="1" as="geometry"/>
                </mxCell>
                <mxCell id="84" value="&lt;b&gt;&lt;font color=&quot;#ff0080&quot;&gt;9. 登录验证:&lt;br&gt;&amp;nbsp; &amp;nbsp; - 用户信息放入 redis&lt;br&gt;&amp;nbsp; &amp;nbsp; - 返回对应的 code&lt;br&gt;&amp;nbsp; &amp;nbsp; - 并给当前 ssoserver登录的页面&lt;br&gt;&amp;nbsp; &amp;nbsp; &amp;nbsp; 留下一个 sso_token 的 cookie, &lt;br&gt;&amp;nbsp; &amp;nbsp; &amp;nbsp; 为了能让其他服务知道已经登录过了&lt;br&gt;&lt;/font&gt;&lt;/b&gt;" style="edgeLabel;html=1;align=left;verticalAlign=middle;resizable=0;points=[];fontSize=11;labelBackgroundColor=#CCFF99;" parent="83" vertex="1" connectable="0">
                    <mxGeometry x="-0.6667" relative="1" as="geometry">
                        <mxPoint x="2" y="-25.25" as="offset"/>
                    </mxGeometry>
                </mxCell>
                <mxCell id="87" style="edgeStyle=orthogonalEdgeStyle;rounded=0;orthogonalLoop=1;jettySize=auto;html=1;entryX=0.9;entryY=0.5;entryDx=0;entryDy=0;entryPerimeter=0;fontSize=11;" parent="1" source="85" target="86" edge="1">
                    <mxGeometry relative="1" as="geometry"/>
                </mxCell>
                <mxCell id="88" value="10. 登录成功, 让浏览器重定向到&lt;br&gt;&lt;b&gt;&lt;font style=&quot;font-size: 12px&quot; color=&quot;#ff33ff&quot;&gt;http://pan.com/xx?code=xxxx&lt;/font&gt;&lt;/b&gt;" style="edgeLabel;html=1;align=center;verticalAlign=middle;resizable=0;points=[];fontSize=11;" parent="87" vertex="1" connectable="0">
                    <mxGeometry x="0.719" relative="1" as="geometry">
                        <mxPoint x="83" as="offset"/>
                    </mxGeometry>
                </mxCell>
                <mxCell id="91" style="edgeStyle=orthogonalEdgeStyle;rounded=0;orthogonalLoop=1;jettySize=auto;html=1;entryX=0;entryY=0.5;entryDx=0;entryDy=0;entryPerimeter=0;fontSize=11;" parent="1" source="89" target="90" edge="1">
                    <mxGeometry relative="1" as="geometry"/>
                </mxCell>
                <mxCell id="92" value="11. 带着 code 的 uri 再次访问受保护的资源&lt;br&gt;&lt;b&gt;&lt;font color=&quot;#ff33ff&quot; style=&quot;font-size: 12px&quot;&gt;http://pan.com/xx?code=xxxx&lt;/font&gt;&lt;/b&gt;" style="edgeLabel;html=1;align=center;verticalAlign=middle;resizable=0;points=[];fontSize=11;" parent="91" vertex="1" connectable="0">
                    <mxGeometry x="-0.7621" y="2" relative="1" as="geometry">
                        <mxPoint x="82" y="2" as="offset"/>
                    </mxGeometry>
                </mxCell>
                <mxCell id="95" style="edgeStyle=orthogonalEdgeStyle;rounded=0;orthogonalLoop=1;jettySize=auto;html=1;fontSize=11;" parent="1" source="55" target="94" edge="1">
                    <mxGeometry relative="1" as="geometry"/>
                </mxCell>
                <mxCell id="96" style="edgeStyle=orthogonalEdgeStyle;rounded=0;orthogonalLoop=1;jettySize=auto;html=1;fontSize=11;" parent="1" source="94" target="55" edge="1">
                    <mxGeometry relative="1" as="geometry"/>
                </mxCell>
                <mxCell id="97" value="&lt;font color=&quot;#00ff00&quot;&gt;&lt;span style=&quot;font-size: 12px&quot;&gt;2. 判断是否登录: &lt;br&gt;&amp;nbsp; &amp;nbsp; - 根据 code 去 sso server 换用户信息，放入 session&lt;/span&gt;&lt;br style=&quot;font-size: 12px&quot;&gt;&lt;span style=&quot;font-size: 12px&quot;&gt;&amp;nbsp; &amp;nbsp;- 有或者 session中有则返回用户信息, 否则认为没登录&lt;/span&gt;&lt;/font&gt;" style="edgeLabel;html=1;align=left;verticalAlign=middle;resizable=0;points=[];fontSize=11;" parent="96" vertex="1" connectable="0">
                    <mxGeometry x="0.8645" y="2" relative="1" as="geometry">
                        <mxPoint x="11" y="-27" as="offset"/>
                    </mxGeometry>
                </mxCell>
                <mxCell id="102" style="edgeStyle=orthogonalEdgeStyle;rounded=0;orthogonalLoop=1;jettySize=auto;html=1;fontSize=11;" parent="1" source="100" target="101" edge="1">
                    <mxGeometry relative="1" as="geometry"/>
                </mxCell>
                <mxCell id="103" value="12. 访问search 服务的受保护资源&lt;br&gt;&lt;b&gt;&lt;font color=&quot;#ff59f4&quot; style=&quot;font-size: 12px&quot;&gt;http://search.baidu.com/boos&lt;/font&gt;&lt;/b&gt;" style="edgeLabel;html=1;align=center;verticalAlign=middle;resizable=0;points=[];fontSize=11;" parent="102" vertex="1" connectable="0">
                    <mxGeometry x="-0.7881" y="-2" relative="1" as="geometry">
                        <mxPoint x="88" y="-2" as="offset"/>
                    </mxGeometry>
                </mxCell>
                <mxCell id="109" style="edgeStyle=orthogonalEdgeStyle;rounded=0;orthogonalLoop=1;jettySize=auto;html=1;fontSize=11;" parent="1" source="106" target="101" edge="1">
                    <mxGeometry relative="1" as="geometry"/>
                </mxCell>
                <mxCell id="106" value="" style="points=[];perimeter=orthogonalPerimeter;rounded=0;shadow=0;strokeWidth=1;fillColor=#d5e8d4;strokeColor=#82b366;" parent="1" vertex="1">
                    <mxGeometry x="629" y="605" width="10" height="40" as="geometry"/>
                </mxCell>
                <mxCell id="108" style="edgeStyle=orthogonalEdgeStyle;rounded=0;orthogonalLoop=1;jettySize=auto;html=1;fontSize=11;" parent="1" source="101" target="106" edge="1">
                    <mxGeometry relative="1" as="geometry"/>
                </mxCell>
                <mxCell id="110" value="13. 判断是否登录: 同 step2" style="edgeLabel;html=1;align=center;verticalAlign=middle;resizable=0;points=[];fontSize=11;" parent="108" vertex="1" connectable="0">
                    <mxGeometry x="-0.6667" y="3" relative="1" as="geometry">
                        <mxPoint x="57" y="-7" as="offset"/>
                    </mxGeometry>
                </mxCell>
                <mxCell id="114" style="edgeStyle=orthogonalEdgeStyle;rounded=0;orthogonalLoop=1;jettySize=auto;html=1;entryX=1.1;entryY=0.5;entryDx=0;entryDy=0;entryPerimeter=0;fontSize=11;" parent="1" source="111" target="113" edge="1">
                    <mxGeometry relative="1" as="geometry"/>
                </mxCell>
                <mxCell id="115" value="14. 同 step-3" style="edgeLabel;html=1;align=center;verticalAlign=middle;resizable=0;points=[];fontSize=11;" parent="114" vertex="1" connectable="0">
                    <mxGeometry x="0.7824" y="-3" relative="1" as="geometry">
                        <mxPoint x="36" y="3" as="offset"/>
                    </mxGeometry>
                </mxCell>
                <mxCell id="116" value="" style="points=[];perimeter=orthogonalPerimeter;rounded=0;shadow=0;strokeWidth=1;fillColor=#d5e8d4;strokeColor=#82b366;" parent="1" vertex="1">
                    <mxGeometry x="629" y="705" width="10" height="40" as="geometry"/>
                </mxCell>
                <mxCell id="117" style="edgeStyle=orthogonalEdgeStyle;rounded=0;orthogonalLoop=1;jettySize=auto;html=1;entryX=0.2;entryY=0.75;entryDx=0;entryDy=0;entryPerimeter=0;fontSize=11;" parent="1" source="52" target="116" edge="1">
                    <mxGeometry relative="1" as="geometry"/>
                </mxCell>
                <mxCell id="118" value="15. 重定向:&amp;nbsp;&lt;b style=&quot;font-size: 13px&quot;&gt;&lt;font color=&quot;#ff33ff&quot;&gt;&lt;span style=&quot;background-color: rgb(248 , 249 , 250)&quot;&gt;http://ssoserver.com/login.html?redi_uri=&lt;/span&gt;&lt;/font&gt;&lt;/b&gt;&lt;b&gt;&lt;font style=&quot;font-size: 12px&quot;&gt;&lt;font color=&quot;#ff59f4&quot;&gt;http://search.baidu.com/boos&lt;/font&gt;&lt;br&gt;&lt;font color=&quot;#0000ff&quot;&gt;此时会带上之前的 sso_token 来表示用户&lt;/font&gt;&lt;br&gt;&lt;/font&gt;&lt;/b&gt;" style="edgeLabel;html=1;align=center;verticalAlign=middle;resizable=0;points=[];fontSize=11;" parent="117" vertex="1" connectable="0">
                    <mxGeometry x="-0.7814" y="-2" relative="1" as="geometry">
                        <mxPoint x="209" y="-2" as="offset"/>
                    </mxGeometry>
                </mxCell>
                <mxCell id="123" style="edgeStyle=orthogonalEdgeStyle;rounded=0;orthogonalLoop=1;jettySize=auto;html=1;fontSize=11;" parent="1" source="119" target="122" edge="1">
                    <mxGeometry relative="1" as="geometry">
                        <Array as="points">
                            <mxPoint x="171" y="805"/>
                            <mxPoint x="171" y="805"/>
                        </Array>
                    </mxGeometry>
                </mxCell>
                <mxCell id="124" value="17. 默认登录成功, 让浏览器重定向&lt;br&gt;&lt;b&gt;&lt;font color=&quot;#ff59f4&quot; style=&quot;font-size: 12px&quot;&gt;http://search.baidu.com/boos?code=xx&lt;/font&gt;&lt;/b&gt;" style="edgeLabel;html=1;align=center;verticalAlign=middle;resizable=0;points=[];fontSize=11;" parent="123" vertex="1" connectable="0">
                    <mxGeometry x="0.7952" relative="1" as="geometry">
                        <mxPoint x="103" as="offset"/>
                    </mxGeometry>
                </mxCell>
                <mxCell id="128" style="edgeStyle=orthogonalEdgeStyle;rounded=0;orthogonalLoop=1;jettySize=auto;html=1;fontSize=11;" parent="1" source="126" target="127" edge="1">
                    <mxGeometry relative="1" as="geometry">
                        <Array as="points">
                            <mxPoint x="441" y="845"/>
                            <mxPoint x="441" y="845"/>
                        </Array>
                    </mxGeometry>
                </mxCell>
                <mxCell id="129" value="18. 带着 code 的 uri 再次访问受保护资源&lt;br&gt;&lt;b&gt;&lt;font color=&quot;#ff59f4&quot; style=&quot;font-size: 12px&quot;&gt;http://search.baidu.com/boos?code=xx&lt;/font&gt;&lt;/b&gt;" style="edgeLabel;html=1;align=center;verticalAlign=middle;resizable=0;points=[];fontSize=11;" parent="128" vertex="1" connectable="0">
                    <mxGeometry x="-0.7261" y="1" relative="1" as="geometry">
                        <mxPoint x="116" y="1" as="offset"/>
                    </mxGeometry>
                </mxCell>
                <mxCell id="130" value="" style="points=[];perimeter=orthogonalPerimeter;rounded=0;shadow=0;strokeWidth=1;fillColor=#f5f5f5;strokeColor=#666666;fontColor=#333333;" parent="1" vertex="1">
                    <mxGeometry x="469" y="865" width="10" height="40" as="geometry"/>
                </mxCell>
                <mxCell id="131" style="edgeStyle=orthogonalEdgeStyle;rounded=0;orthogonalLoop=1;jettySize=auto;html=1;fontSize=11;" parent="1" source="130" target="130" edge="1">
                    <mxGeometry relative="1" as="geometry"/>
                </mxCell>
                <mxCell id="132" value="19. 同 step-2 &lt;font color=&quot;#00cc66&quot;&gt;创建自己的session&lt;/font&gt;并存入用户信息" style="edgeLabel;html=1;align=center;verticalAlign=middle;resizable=0;points=[];fontSize=11;" parent="131" vertex="1" connectable="0">
                    <mxGeometry x="-0.6333" y="2" relative="1" as="geometry">
                        <mxPoint x="121" y="2" as="offset"/>
                    </mxGeometry>
                </mxCell>
                <mxCell id="134" value="" style="points=[];perimeter=orthogonalPerimeter;rounded=0;shadow=0;strokeWidth=1;fillColor=#d5e8d4;strokeColor=#82b366;" parent="1" vertex="1">
                    <mxGeometry x="72.5" y="915" width="9" height="40" as="geometry"/>
                </mxCell>
                <mxCell id="135" style="edgeStyle=orthogonalEdgeStyle;rounded=0;orthogonalLoop=1;jettySize=auto;html=1;fontSize=11;" parent="1" source="133" target="134" edge="1">
                    <mxGeometry relative="1" as="geometry"/>
                </mxCell>
                <mxCell id="136" value="20. 返回受保护资源" style="edgeLabel;html=1;align=center;verticalAlign=middle;resizable=0;points=[];fontSize=11;" parent="135" vertex="1" connectable="0">
                    <mxGeometry x="0.5897" y="1" relative="1" as="geometry">
                        <mxPoint x="50" y="-1" as="offset"/>
                    </mxGeometry>
                </mxCell>
                <mxCell id="137" value="&lt;div style=&quot;text-align: left&quot;&gt;&lt;span&gt;&lt;font color=&quot;#0000ff&quot;&gt;核心&lt;/font&gt;&lt;/span&gt;&lt;/div&gt;&lt;div style=&quot;text-align: left&quot;&gt;&lt;span&gt;&lt;font color=&quot;#0000ff&quot;&gt;&amp;nbsp; &amp;nbsp;1. sso 是基于浏览器 cookie 做的, 给登录服务器留下登录的痕迹&lt;/font&gt;&lt;/span&gt;&lt;/div&gt;&lt;div style=&quot;text-align: left&quot;&gt;&lt;span&gt;&lt;font color=&quot;#0000ff&quot;&gt;&amp;nbsp; &amp;nbsp;2. 去登录服务器时需要带上 call_back 的 uri&lt;/font&gt;&lt;/span&gt;&lt;/div&gt;&lt;div style=&quot;text-align: left&quot;&gt;&lt;span&gt;&lt;font color=&quot;#0000ff&quot;&gt;&amp;nbsp; &amp;nbsp;3. 登录服务器login 之后重定向时需要带上 code: 只能使用一次&amp;nbsp;&lt;/font&gt;&lt;/span&gt;&lt;/div&gt;&lt;div style=&quot;text-align: left&quot;&gt;&lt;span&gt;&lt;font color=&quot;#0000ff&quot;&gt;&amp;nbsp; &amp;nbsp;4. 从登录服务器使用 code 换回来user 之后需要各自保存进自己的 session&lt;/font&gt;&lt;/span&gt;&lt;/div&gt;&lt;div style=&quot;text-align: left&quot;&gt;&lt;span&gt;   &lt;/span&gt;&lt;/div&gt;" style="text;html=1;align=center;verticalAlign=middle;resizable=0;points=[];autosize=1;fontSize=11;" parent="1" vertex="1">
                    <mxGeometry x="2" y="1001" width="380" height="70" as="geometry"/>
                </mxCell>
                <mxCell id="138" style="edgeStyle=orthogonalEdgeStyle;rounded=0;orthogonalLoop=1;jettySize=auto;html=1;" edge="1" parent="1" source="142" target="144">
                    <mxGeometry relative="1" as="geometry"/>
                </mxCell>
                <mxCell id="139" style="edgeStyle=orthogonalEdgeStyle;rounded=0;orthogonalLoop=1;jettySize=auto;html=1;exitX=0.5;exitY=1;exitDx=0;exitDy=0;entryX=0.5;entryY=0;entryDx=0;entryDy=0;" edge="1" parent="1" source="142" target="145">
                    <mxGeometry relative="1" as="geometry"/>
                </mxCell>
                <mxCell id="140" style="edgeStyle=orthogonalEdgeStyle;rounded=0;orthogonalLoop=1;jettySize=auto;html=1;exitX=0.5;exitY=1;exitDx=0;exitDy=0;" edge="1" parent="1" source="142" target="143">
                    <mxGeometry relative="1" as="geometry"/>
                </mxCell>
                <mxCell id="141" style="edgeStyle=orthogonalEdgeStyle;rounded=0;orthogonalLoop=1;jettySize=auto;html=1;exitX=1;exitY=0.25;exitDx=0;exitDy=0;entryX=0;entryY=0.25;entryDx=0;entryDy=0;" edge="1" parent="1" source="142" target="147">
                    <mxGeometry relative="1" as="geometry"/>
                </mxCell>
                <mxCell id="142" value="百度&lt;br&gt;baidu.com" style="rounded=1;whiteSpace=wrap;html=1;fillColor=#dae8fc;strokeColor=#6c8ebf;" vertex="1" parent="1">
                    <mxGeometry x="252.5" y="1200" width="120" height="60" as="geometry"/>
                </mxCell>
                <mxCell id="143" value="百度网盘&lt;br&gt;pan.com" style="rounded=1;whiteSpace=wrap;html=1;fillColor=#f5f5f5;strokeColor=#666666;fontColor=#333333;" vertex="1" parent="1">
                    <mxGeometry x="72.5" y="1390" width="120" height="60" as="geometry"/>
                </mxCell>
                <mxCell id="144" value="百度搜索&lt;br&gt;search.baidu.com" style="rounded=1;whiteSpace=wrap;html=1;fillColor=#fff2cc;strokeColor=#d6b656;" vertex="1" parent="1">
                    <mxGeometry x="252.5" y="1390" width="120" height="60" as="geometry"/>
                </mxCell>
                <mxCell id="145" value="百度文库&lt;br&gt;wku.com" style="rounded=1;whiteSpace=wrap;html=1;fillColor=#ffe6cc;strokeColor=#d79b00;" vertex="1" parent="1">
                    <mxGeometry x="432.5" y="1390" width="120" height="60" as="geometry"/>
                </mxCell>
                <mxCell id="146" style="edgeStyle=orthogonalEdgeStyle;rounded=0;orthogonalLoop=1;jettySize=auto;html=1;exitX=0;exitY=0.75;exitDx=0;exitDy=0;entryX=1;entryY=0.75;entryDx=0;entryDy=0;" edge="1" parent="1" source="147" target="142">
                    <mxGeometry relative="1" as="geometry"/>
                </mxCell>
                <mxCell id="147" value="认证中心&lt;br&gt;ssoserver.com" style="rounded=1;whiteSpace=wrap;html=1;fillColor=#d80073;strokeColor=#A50040;fontColor=#ffffff;" vertex="1" parent="1">
                    <mxGeometry x="562.5" y="1200" width="120" height="60" as="geometry"/>
                </mxCell>
            </root>
        </mxGraphModel>
    </diagram>
</mxfile>
